<svg height="512" viewBox="0 0 512 512" width="512" xmlns="http://www.w3.org/2000/svg"><g id="Flash"><path d="m224 498 16-224-88 16 40-272h192l-80.29 208h104.29z" fill="#ffda44"/><path d="m415.066 220.249a8 8 0 0 0 -7.066-4.249h-92.627l76.09-197.119a8 8 0 0 0 -7.463-10.881h-192a8 8 0 0 0 -7.915 6.836l-40 272a8 8 0 0 0 9.346 9.035l77.855-14.155-15.265 213.714a8 8 0 0 0 14.605 5.052l184-272a8 8 0 0 0 .44-8.233zm-180.959 246.532 13.872-194.211a8 8 0 0 0 -9.41-8.441l-77.032 14.006 37.372-254.135h173.428l-76.09 197.119a8 8 0 0 0 7.463 10.881h89.22z"/><path d="m264 32h-48a8 8 0 0 0 0 16h48a8 8 0 0 0 0-16z"/><path d="m304 40a8 8 0 0 0 -8-8h-8a8 8 0 0 0 0 16h8a8 8 0 0 0 8-8z"/></g></svg>