<?xml version="1.0" encoding="iso-8859-1"?>
<!-- Generator: Adobe Illustrator 19.0.0, SVG Export Plug-In . SVG Version: 6.00 Build 0)  -->
<svg version="1.1" id="Capa_1" xmlns="http://www.w3.org/2000/svg" xmlns:xlink="http://www.w3.org/1999/xlink" x="0px" y="0px"
	 viewBox="0 0 512 512" style="enable-background:new 0 0 512 512;" xml:space="preserve">
<path style="fill:#088042;" d="M331,220.749v95.101c0,8.399-6.599,15-15,15H196c-8.401,0-15-6.601-15-15v-95.101
	c0-68.399,20.099-134.399,57.9-191.398l4.501-6.901c2.999-4.2,7.8-6.299,12.599-6.299c4.799,0,9.6,2.098,12.599,6.299l4.501,6.901
	C310.901,86.349,331,152.349,331,220.749z"/>
<path style="fill:#06743C;" d="M331,220.749v95.101c0,8.399-6.599,15-15,15h-60V16.15c4.799,0,9.6,2.098,12.599,6.299l4.501,6.901
	C310.901,86.349,331,152.349,331,220.749z"/>
<path style="fill:#0A8C4B;" d="M450.099,125.949l-15.298,41.7C407.8,242.349,401.5,322.748,417.1,400.748
	c1.5,8.101-3.9,45.901-12.001,47.701l-80.4,17.401H169.9l-72.599-12.601C89.2,450.85,84.7,442.75,86.8,434.649
	c24.901-88.499,21.601-180.599-9.6-266.999l-15.298-41.7c-2.1-6-0.3-12.599,4.499-16.5c4.801-4.2,11.7-4.801,17.1-1.5l16.199,9.3
	c76.501,44.7,131.4,116.999,156.301,199.499c24.901-82.5,79.799-154.799,156.301-199.499l16.199-9.3
	c5.4-3.301,12.299-2.701,17.1,1.5C450.399,113.35,452.199,119.949,450.099,125.949z"/>
<path style="fill:#088042;" d="M450.099,125.949l-15.298,41.7C407.8,242.349,401.5,322.748,417.1,400.748
	c1.5,8.101-3.9,45.901-12.001,47.701l-80.4,17.401H256V316.749c24.901-82.5,79.799-154.799,156.301-199.499l16.199-9.3
	c5.4-3.301,12.299-2.701,17.1,1.5C450.399,113.35,452.199,119.949,450.099,125.949z"/>
<path style="fill:#0A8C4B;" d="M335.633,465.85h156.195c-0.366-1.743-0.956-3.466-1.976-5.054
	c-27.51-42.671-28.989-96.46-3.896-140.391l24.067-42.114c3.047-5.332,2.534-11.968-1.274-16.772
	c-3.823-4.819-10.181-6.782-16.055-5.039l-44.096,12.935c-82.734,24.814-132.554,110.684-113.394,195.483
	C335.285,465.251,335.528,465.507,335.633,465.85z"/>
<path style="fill:#0DA656;" d="M26.045,320.406c25.988,45.476,23.071,102.504-7.35,145.444h157.976
	c8.337-35.614,5.12-72.054-9.807-105.498c-19.629-43.96-58.334-77.109-104.462-90.938L19.307,256.48
	c-5.903-1.758-12.231,0.22-16.055,5.039c-3.809,4.805-4.321,11.44-1.274,16.772L26.045,320.406z"/>
<path style="fill:#10BB67;" d="M378.401,465.85H133.599c-0.3-2.1,0-4.501,0.901-6.601l20.7-52.2
	c15.899-39.3,15.899-83.101,0-122.401l-3.001-8.099c-2.699-6.601-0.599-13.801,5.101-17.701c5.4-4.2,12.9-3.9,18.3,0.601l36,30
	c19.199,15.899,34.199,35.7,44.399,57.9c10.201-22.2,25.201-42.001,44.399-57.9l36-30c5.4-4.501,12.9-4.801,18.3-0.601
	c5.7,3.9,7.8,11.1,5.101,17.701l-3.301,8.099c-15.599,39.3-15.599,83.101,0.3,122.401l20.7,52.2
	C378.401,461.349,378.701,463.75,378.401,465.85z"/>
<path style="fill:#0DA656;" d="M378.401,465.85H256v-118.5c10.201-22.2,25.201-42.001,44.399-57.9l36-30
	c5.4-4.501,12.9-4.801,18.3-0.601c5.7,3.9,7.8,11.1,5.101,17.701l-3.301,8.099c-15.599,39.3-15.599,83.101,0.3,122.401l20.7,52.2
	C378.401,461.349,378.701,463.75,378.401,465.85z"/>
<path style="fill:#664B34;" d="M512,465.85v15c0,8.399-6.599,15-15,15H15c-8.401,0-15-6.601-15-15v-15c0-16.5,13.5-30,30-30h452
	C498.5,435.85,512,449.35,512,465.85z"/>
<path style="fill:#59422D;" d="M512,465.85v15c0,8.399-6.599,15-15,15H256v-60h226C498.5,435.85,512,449.35,512,465.85z"/>
<g>
</g>
<g>
</g>
<g>
</g>
<g>
</g>
<g>
</g>
<g>
</g>
<g>
</g>
<g>
</g>
<g>
</g>
<g>
</g>
<g>
</g>
<g>
</g>
<g>
</g>
<g>
</g>
<g>
</g>
</svg>
