<svg height="512pt" viewBox="-79 0 512 512" width="512pt" xmlns="http://www.w3.org/2000/svg"><path d="m64.03125 38.078125h231v182.757813h-231zm0 0" fill="#c6c5ca"/><path d="m38.722656 220.832031h25.308594v-182.753906h-25.308594c-10.292968 10.289063-16.0625 16.0625-26.355468 26.355469v130.042968c10.292968 10.292969 16.0625 16.0625 26.355468 26.355469zm0 0" fill="#787680"/><path d="m320.34375 38.078125h-25.3125v182.757813h25.3125c10.292969-10.296876 16.0625-16.066407 26.355469-26.359376v-130.042968c-10.292969-10.292969-16.0625-16.066406-26.355469-26.355469zm0 0" fill="#787680"/><path d="m213.199219 38.078125h-67.332031v-20.578125l10-10h47.332031c3.90625 3.90625 6.097656 6.09375 10 10zm0 0" fill="#e0e0e2"/><path d="m145.867188 220.832031h67.332031v28.542969h-67.332031zm0 0" fill="#e0e0e2"/><path d="m155.117188 249.375h48.832031v214.292969h-48.832031zm0 0" fill="#b77062"/><path d="m211.53125 463.667969h-64v32.832031c3.125 3.125 4.878906 4.875 8 8h48c3.125-3.125 4.878906-4.875 8-8zm0 0" fill="#c6c5ca"/><path d="m147.53125 494.816406h-84.027344c-14.417968 0-26.109375-11.6875-26.109375-26.109375v-32.070312.917969c0 14.421874 11.691407 26.113281 26.109375 26.113281h84.027344zm0 0" fill="#ff7956"/><path d="m37.394531 437.554688c0 5.632812 1.78125 10.847656 4.816407 15.113281l.003906-.003907c4.730468-6.652343 12.503906-10.992187 21.289062-10.992187h40.570313c14.421875 0 26.113281-11.6875 26.113281-26.109375v-31.152344c0 14.421875-11.691406 26.113282-26.113281 26.113282h-40.570313c-14.417968 0-26.109375 11.691406-26.109375 26.109374zm0 0" fill="#787680"/><path d="m125.035156 399.988281c3.207032-4.308593 5.117188-9.636719 5.152344-15.414062.089844-14.453125-12.289062-26.273438-26.742188-26.273438h-95.945312c0 17.203125 13.945312 31.148438 31.152344 31.148438h65.421875c8.585937 0 16.199219 4.144531 20.960937 10.539062zm0 0" fill="#ff7956"/><path d="m64.03125 38.078125h30v182.757813h-30zm0 0" fill="#898890"/><path d="m42.367188 194.476562v-130.042968l21.664062-21.667969v-4.6875h-25.308594l-26.355468 26.355469v130.042968c10.292968 10.292969 16.0625 16.0625 26.355468 26.359376h25.308594v-4.691407c-7.59375-7.59375-13.042969-13.042969-21.664062-21.667969zm0 0" fill="#57565c"/><path d="m325.03125 42.765625-4.6875-4.6875h-25.3125v182.757813h25.3125c1.667969-1.671876 3.21875-3.222657 4.6875-4.691407zm0 0" fill="#57565c"/><path d="m185.867188 7.5h-30c-3.90625 3.90625-6.097657 6.09375-10 10v20.578125h30v-20.578125zm0 0" fill="#c6c5ca"/><path d="m145.867188 220.832031h30v28.542969h-30zm0 0" fill="#c6c5ca"/><path d="m155.117188 249.375h30v214.292969h-30zm0 0" fill="#895247"/><path d="m177.53125 463.667969h-30v32.832031l8 8h30l-8-8zm0 0" fill="#898890"/><path d="m67.394531 468.707031v-5.039062h-3.890625c-14.417968 0-26.109375-11.691407-26.109375-26.113281v31.152343c0 14.421875 11.691407 26.109375 26.109375 26.109375h30c-14.417968 0-26.109375-11.691406-26.109375-26.109375zm0 0" fill="#ff3f62"/><path d="m67.394531 437.554688v-.921876c0-14.417968 11.691407-26.109374 26.109375-26.109374h-30c-14.417968 0-26.109375 11.691406-26.109375 26.109374v.921876c0 5.632812 1.78125 10.847656 4.816407 15.113281l.003906-.003907c4.730468-6.652343 12.503906-10.992187 21.289062-10.992187h4.214844c-.214844-1.339844-.324219-2.714844-.324219-4.117187zm0 0" fill="#57565c"/><path d="m37.5 358.300781h-30c0 17.203125 13.945312 31.148438 31.148438 31.148438h30c-17.203126 0-31.148438-13.945313-31.148438-31.148438zm0 0" fill="#ff3f62"/><path d="m323.449219 30.578125h-102.75v-16.183594l-14.394531-14.394531h-53.542969l-14.394531 14.394531v16.183594h-102.75l-30.75 30.75v136.257813l30.75 30.75h102.75v28.542968h34.054687l-9.804687 9.800782v-.300782h-15v189.789063h-7.585938v43.441406l12.394531 12.390625h54.214844l12.394531-12.394531v-43.441407h-7.585937v-189.789062h-15v5.082031l-33.832031 33.828125v-17.394531l31.019531-31.015625h27.0625v-28.542969h102.75l30.75-30.75v-136.257812zm-281.621094 182.753906-21.960937-21.960937v-123.832032l21.960937-21.960937h14.707031v167.757813h-14.707031zm154.621094 173.945313-33.832031 33.832031v-17.394531l33.832031-33.832032zm0-38.605469-33.832031 33.828125v-17.394531l33.832031-33.828125zm-33.832031 93.648437 33.832031-33.828124v17.394531l-30.28125 30.277343h-3.550781zm37.808593 54.679688h-41.785156l-3.605469-3.605469v-22.226562h49v22.226562zm-13.042969-40.832031 9.066407-9.066407v9.066407zm9.066407-163.5v17.394531l-33.832031 33.832031v-17.398437zm-43.082031-272.0625 5.605468-5.605469h41.121094l5.605469 5.605469v9.96875h-52.332031zm52.332031 221.269531h-52.332031v-13.542969h52.332031zm81.832031-28.542969h-216v-167.753906h216zm51.667969-21.960937-21.960938 21.960937h-14.707031v-167.753906h14.707031l21.960938 21.960937zm0 0"/><path d="m127.90625 361.042969c-6.472656-6.507813-15.386719-10.242188-24.460938-10.242188h-103.445312v7.5c0 21.3125 17.339844 38.648438 38.648438 38.648438h65.425781v-15h-65.425781c-10.417969 0-19.285157-6.773438-22.429688-16.148438h87.226562c5.109376 0 10.148438 2.121094 13.820313 5.816407 3.515625 3.535156 5.4375 8.105468 5.421875 12.871093-.042969 10.226563-8.375 18.53125-18.613281 18.53125h-40.570313c-18.53125 0-33.609375 15.078125-33.609375 33.613281v32.070313c0 18.53125 15.078125 33.609375 33.609375 33.609375h64.027344v-15h-64.027344c-10.261718 0-18.609375-8.347656-18.609375-18.609375v-3.175781c5.332031 3.5625 11.734375 5.636718 18.609375 5.636718h64.027344v-15h-64.027344c-10.261718 0-18.609375-8.347656-18.609375-18.609374v-.921876c0-10.261718 8.347657-18.613281 18.609375-18.613281h40.570313c6.878906 0 13.28125-2.074219 18.613281-5.632812v3.171875c0 10.261718-8.347656 18.613281-18.613281 18.613281h-40.570313v15h40.570313c18.535156 0 33.613281-15.078125 33.613281-33.613281v-31.148438c-.003906-8.722656-3.472656-17.015625-9.78125-23.367187zm0 0"/><path d="m192.5625 89.40625 6.195312 13.660156c7.4375-3.375 15.632813-4.742187 23.714844-4.035156-4.964844 10.675781-13.648437 18.871094-24.015625 23.410156-5.210937-12.695312-14.414062-23.257812-26.496093-30.230468-14.441407-8.339844-31.265626-10.554688-47.371094-6.238282l-7.242188 1.941406 1.9375 7.246094c3.746094 13.972656 12.285156 26.285156 24.050782 34.664063l8.703124-12.214844c-6.6875-4.765625-12.003906-11.203125-15.445312-18.59375 11.515625-1.035156 22.929688 2.199219 32.296875 9.074219-8.398437 10.863281-12.945313 24.121094-12.945313 38.074218 0 16.675782 6.496094 32.351563 18.285157 44.144532l5.304687 5.304687 5.300782-5.304687c10.230468-10.230469 16.625-23.785156 18-38.164063l-14.933594-1.429687c-.78125 8.175781-3.699219 16-8.378906 22.675781-6.890626-9.789063-9.511719-21.375-8.289063-32.503906 30.617187 4.101562 60.34375-15.121094 68.542969-45.726563l1.941406-7.246094-7.242188-1.941406c-13.921874-3.730468-28.808593-2.511718-41.914062 3.433594zm-17.257812 36.84375c1.179687-2.550781 2.589843-5 4.226562-7.316406 1.613281 2.292968 3.027344 4.734375 4.214844 7.304687-2.777344.253907-5.601563.261719-8.441406.011719zm0 0"/><g fill="#fff"><path d="m277.53125 195.832031h-15v-82.757812h15zm0-92.753906h-15v-15h15zm0-25h-15v-15h15zm0 0"/><path d="m329.199219 186.832031h-15v-41.832031h15zm0-51.832031h-15v-15h15zm0-25h-15v-15h15zm0 0"/></g></svg>